<svg width="24" height="24" viewBox="0 0 24 24" fill="none" xmlns="http://www.w3.org/2000/svg">
<path d="M9.11802 11.6941C8.69965 11.6942 8.29823 11.8559 8.00241 12.1438C7.70659 12.4317 7.54041 12.8222 7.54042 13.2294C7.54044 13.6365 7.70664 14.027 8.00248 14.3149C8.29832 14.6028 8.69955 14.7645 9.11792 14.7645C9.53629 14.7645 9.93753 14.6028 10.2334 14.3149C10.5292 14.027 10.6954 13.6365 10.6954 13.2294C10.6954 12.8222 10.5293 12.4317 10.2334 12.1438C9.93761 11.8559 9.53639 11.6942 9.11802 11.6941ZM14.7429 11.6941C14.3984 11.6657 14.0532 11.7392 13.7523 11.9049C13.4514 12.0707 13.209 12.321 13.0567 12.623C12.9044 12.9251 12.8494 13.2649 12.8989 13.5979C12.9483 13.9309 13.1 14.2416 13.3339 14.4893C13.5678 14.7371 13.8732 14.9103 14.2099 14.9864C14.5467 15.0624 14.8993 15.0377 15.2214 14.9156C15.5435 14.7934 15.8202 14.5794 16.0153 14.3016C16.2104 14.0239 16.3148 13.6952 16.3148 13.3588C16.324 13.149 16.2906 12.9396 16.2166 12.7423C16.1425 12.5451 16.0293 12.3641 15.8833 12.2095C15.7373 12.0549 15.5615 11.9298 15.3658 11.8414C15.1702 11.7529 14.9585 11.7029 14.7429 11.6941ZM16.284 18.698C16.284 18.698 15.7291 18.0531 15.2667 17.4832C16.3838 17.2272 17.3719 16.5951 18.0563 15.6985C17.5018 16.0577 16.9072 16.3545 16.284 16.5833C15.5671 16.8811 14.8173 17.0975 14.0494 17.2282C12.7295 17.4647 11.376 17.4596 10.0581 17.2133C9.28432 17.0658 8.526 16.85 7.79257 16.5684C7.40602 16.4237 7.03015 16.2533 6.66759 16.0585C6.62131 16.0284 6.57522 16.0135 6.52895 15.9834C6.50577 15.9723 6.48488 15.957 6.46732 15.9385C6.19005 15.7886 6.03568 15.6835 6.03568 15.6835C6.69528 16.5613 7.64921 17.1873 8.73265 17.4532C8.27047 18.0233 7.70022 18.698 7.70022 18.698C6.7848 18.722 5.87734 18.5266 5.05773 18.1291C4.23812 17.7316 3.53148 17.1441 3 16.4184C3.05004 13.3779 3.80879 10.3882 5.21905 7.67473C6.46016 6.72612 7.97326 6.17588 9.54944 6.09998L9.70344 6.28002C8.22055 6.63711 6.83675 7.3079 5.65055 8.24466C5.65055 8.24466 5.98964 8.06471 6.55973 7.80973C7.66753 7.31759 8.84822 6.99874 10.0582 6.86496C10.1445 6.84748 10.2322 6.83742 10.3203 6.83488C11.353 6.70396 12.398 6.69392 13.4332 6.80497C15.0611 6.98586 16.6369 7.47494 18.0718 8.24466C16.9458 7.3526 15.6379 6.70339 14.2347 6.33997L14.4503 6.10012C16.0266 6.17597 17.5397 6.72621 18.7808 7.67488C20.1912 10.3883 20.95 13.378 21 16.4184C20.4642 17.1435 19.7545 17.7302 18.9325 18.1275C18.1106 18.5247 17.2015 18.7207 16.284 18.698Z" fill="#8E8E9A"/>
</svg>
