<svg width="24" height="24" viewBox="0 0 24 24" fill="none" xmlns="http://www.w3.org/2000/svg">
<path d="M11.8997 18.7961L11.1967 20.3794C11.0294 20.7393 11.3976 21.1351 11.7323 20.9551L18.628 17.2846H18.6615L11.7326 13.6141C11.3978 13.4342 11.0296 13.83 11.1971 14.1897L11.9 15.8089H11.6992C7.81619 14.9814 4.76989 13.83 4.76989 9.51184C4.76989 9.15193 4.8034 8.79219 4.8368 8.43228C4.30128 9.61981 4 10.9151 4 12.3184C4 16.9244 7.38098 18.2196 11.5987 18.7236L11.8997 18.7961Z" fill="#8E8E9A"/>
<path d="M12.1003 5.26622L12.8702 3.53892C13.0041 3.21505 12.7028 2.89119 12.4015 3.03517L5.40551 6.77743H5.37199L12.4016 10.5197C12.7028 10.6637 13.0041 10.3398 12.8702 10.0159L12.1003 8.28879H12.3011C16.1841 9.08036 19.2301 10.2318 19.2301 14.5859C19.2301 14.9458 19.1966 15.3055 19.1632 15.6654C19.6987 14.4779 20 13.1826 20 11.7793C20.0001 7.13728 16.6193 5.84203 12.4017 5.33806L12.1003 5.26622Z" fill="#8E8E9A"/>
</svg>
