<svg width="16" height="16" fill="none" xmlns="http://www.w3.org/2000/svg"><path fill-rule="evenodd" clip-rule="evenodd" d="M8 2a6 6 0 100 12A6 6 0 008 2zM.667 8a7.333 7.333 0 1114.666 0A7.333 7.333 0 01.667 8z" fill="#fff"/><path fill-rule="evenodd" clip-rule="evenodd" d="M8.172 5.35a1.333 1.333 0 00-1.483.871.667.667 0 01-1.258-.442 2.667 2.667 0 015.182.888c0 1.02-.756 1.694-1.296 2.054a5.363 5.363 0 01-1.124.566l-.024.008-.007.003h-.003c0 .001-.001.001-.212-.631l.211.632a.667.667 0 01-.423-1.264l.01-.004.05-.019a4.032 4.032 0 00.782-.4c.46-.306.703-.633.703-.945A1.336 1.336 0 008.172 5.35zm-.436 2.684zm-.403 3.299c0-.368.299-.666.667-.666h.007a.667.667 0 010 1.333H8a.667.667 0 01-.667-.667z" fill="#fff"/></svg>