<svg width="24" height="30" viewBox="0 0 24 30" fill="none" xmlns="http://www.w3.org/2000/svg">
<path d="M1.044 2.49L12 0L22.956 2.49C23.2521 2.55731 23.5169 2.72586 23.7067 2.96782C23.8965 3.20979 23.9999 3.5107 24 3.82091V17.4395C23.9999 18.7865 23.6747 20.1125 23.0532 21.3C22.4317 22.4875 21.5332 23.4997 20.4373 24.2468L12 30L3.56267 24.2468C2.46703 23.4999 1.56861 22.4879 0.947131 21.3006C0.325648 20.1134 0.000315142 18.7876 0 17.4409V3.82091C5.20504e-05 3.5107 0.103517 3.20979 0.293319 2.96782C0.483122 2.72586 0.747916 2.55731 1.044 2.49Z" fill="white"/>
</svg>
