<svg width="16" height="16" viewBox="0 0 16 16" fill="none" xmlns="http://www.w3.org/2000/svg">
<path fill-rule="evenodd" clip-rule="evenodd" d="M10.7048 11.9143C10.7048 11.9143 10.3619 11.5048 10.0762 11.1429C11.3238 10.7905 11.8 10.0095 11.8 10.0095C11.4095 10.2667 11.0381 10.4476 10.7048 10.5714C10.2286 10.7714 9.77143 10.9048 9.32381 10.981C8.40952 11.1524 7.57143 11.1048 6.85714 10.9714C6.31429 10.8667 5.84762 10.7143 5.45714 10.5619C5.2381 10.4762 5 10.3714 4.76191 10.2381C4.74762 10.2286 4.73334 10.2214 4.71905 10.2143C4.70476 10.2071 4.69048 10.2 4.67619 10.1905C4.65715 10.181 4.64762 10.1714 4.6381 10.1619L4.6381 10.1619C4.46667 10.0667 4.37143 10 4.37143 10C4.37143 10 4.82857 10.7619 6.0381 11.1238C5.75238 11.4857 5.4 11.9143 5.4 11.9143C3.29524 11.8476 2.49524 10.4667 2.49524 10.4667C2.49524 7.4 3.86667 4.91429 3.86667 4.91429C5.2381 3.88572 6.54286 3.91429 6.54286 3.91429L6.6381 4.02858C4.92381 4.52382 4.13333 5.2762 4.13333 5.2762C4.13333 5.2762 4.34286 5.16191 4.69524 5.00001C5.71429 4.55239 6.52381 4.42858 6.85714 4.4L6.8785 4.39639C6.92654 4.38822 6.96917 4.38096 7.01905 4.38096C7.6 4.30477 8.25714 4.28572 8.94286 4.36191C9.84762 4.46667 10.8191 4.73334 11.8095 5.2762C11.8095 5.2762 11.0571 4.56191 9.4381 4.06667L9.57143 3.91429C9.57143 3.91429 10.8762 3.88572 12.2476 4.91429C12.2476 4.91429 13.6191 7.4 13.6191 10.4667C13.6191 10.4667 12.8095 11.8476 10.7048 11.9143ZM6.27619 7.46665C5.73333 7.46665 5.30476 7.94284 5.30476 8.52379C5.30476 9.10475 5.74285 9.58094 6.27619 9.58094C6.81904 9.58094 7.24761 9.10475 7.24761 8.52379C7.25714 7.94284 6.81904 7.46665 6.27619 7.46665ZM9.75237 7.46665C9.20952 7.46665 8.78095 7.94284 8.78095 8.52379C8.78095 9.10475 9.21904 9.58094 9.75237 9.58094C10.2952 9.58094 10.7238 9.10475 10.7238 8.52379C10.7238 7.94284 10.2952 7.46665 9.75237 7.46665ZM16 8C16 12.4183 12.4183 16 8 16C3.58172 16 0 12.4183 0 8C0 3.58172 3.58172 0 8 0C12.4183 0 16 3.58172 16 8Z" fill="white"/>
</svg>
