<svg width="16" height="16" viewBox="0 0 16 16" fill="none" xmlns="http://www.w3.org/2000/svg">
<path d="M4.30325 12.6667L1.33325 15V2.66667C1.33325 2.48986 1.40349 2.32029 1.52851 2.19526C1.65354 2.07024 1.82311 2 1.99992 2H13.9999C14.1767 2 14.3463 2.07024 14.4713 2.19526C14.5963 2.32029 14.6666 2.48986 14.6666 2.66667V12C14.6666 12.1768 14.5963 12.3464 14.4713 12.4714C14.3463 12.5964 14.1767 12.6667 13.9999 12.6667H4.30325ZM7.33325 9.33333V10.6667H8.66658V9.33333H7.33325ZM5.71125 5.87533L7.01925 6.13733C7.05637 5.95162 7.14546 5.78027 7.27616 5.64321C7.40686 5.50615 7.57379 5.40903 7.75753 5.36314C7.94128 5.31725 8.13427 5.32447 8.31407 5.38398C8.49386 5.44349 8.65306 5.55283 8.77314 5.69927C8.89322 5.84572 8.96925 6.02326 8.99237 6.21123C9.0155 6.3992 8.98477 6.58987 8.90377 6.76106C8.82276 6.93224 8.69481 7.07691 8.5348 7.17822C8.37479 7.27953 8.1893 7.33332 7.99992 7.33333H7.33325V8.66667H7.99992C8.44176 8.66653 8.87449 8.54094 9.24776 8.30451C9.62102 8.06808 9.91949 7.73052 10.1084 7.33111C10.2974 6.9317 10.369 6.48686 10.3151 6.04832C10.2611 5.60978 10.0837 5.19558 9.80356 4.8539C9.52341 4.51222 9.152 4.25711 8.73255 4.11824C8.31309 3.97937 7.86283 3.96245 7.43413 4.06945C7.00544 4.17645 6.61594 4.40298 6.31094 4.72267C6.00594 5.04236 5.79798 5.44208 5.71125 5.87533Z" fill="white"/>
</svg>
