<svg width="16" height="16" viewBox="0 0 16 16" fill="none" xmlns="http://www.w3.org/2000/svg">
<path fill-rule="evenodd" clip-rule="evenodd" d="M16 8C16 12.4183 12.4183 16 8 16C3.58172 16 0 12.4183 0 8C0 3.58172 3.58172 0 8 0C12.4183 0 16 3.58172 16 8ZM4.05976 5.30276C4.15142 5.38602 4.19823 5.50828 4.18581 5.63198V10.0858C4.21301 10.2465 4.16274 10.4106 4.05042 10.5279L3 11.8119V11.9812H5.97852V11.8119L4.9281 10.5279C4.81496 10.4108 4.76158 10.2478 4.78338 10.0858V6.23398L7.39776 11.9812H7.70121L9.94678 6.23398V10.8148C9.94678 10.9371 9.94678 10.9606 9.86741 11.0406L9.05976 11.8307V12H12.9813V11.8307L12.2017 11.0594C12.1329 11.0065 12.0987 10.9196 12.113 10.8336V5.16637C12.0987 5.08038 12.1329 4.99349 12.2017 4.94062L13 4.16931V4H10.2362L8.26611 8.95238L6.02521 4H3.12605V4.16931L4.05976 5.30276Z" fill="white"/>
</svg>
