<svg width="48" height="48" fill="none" xmlns="http://www.w3.org/2000/svg"><path fill-rule="evenodd" clip-rule="evenodd" d="M17.95 32.808l3.64.965v-1.262l.297-.298h2.08v2.526h-2.229l-2.749-1.188-1.04-.743z" fill="#CDBDB2"/><path fill-rule="evenodd" clip-rule="evenodd" d="M29.836 32.808l-3.566.965v-1.262l-.297-.298h-2.08v2.526h2.229l2.748-1.188.966-.743z" fill="#CDBDB2"/><path fill-rule="evenodd" clip-rule="evenodd" d="M21.887 30.059l-.297 2.452.371-.298h3.863l.446.298-.297-2.452-.594-.372-2.972.075-.52.297z" fill="#393939"/><path fill-rule="evenodd" clip-rule="evenodd" d="M19.88 13.492l1.784 4.16.817 12.11h2.897l.892-12.11 1.634-4.16h-8.023z" fill="#F89C35"/><path fill-rule="evenodd" clip-rule="evenodd" d="M12.08 22.63L10 28.647l5.2-.297h3.344v-2.6l-.149-5.35-.743.595-5.572 1.635z" fill="#F89D35"/><path fill-rule="evenodd" clip-rule="evenodd" d="M16.018 23.298l6.092.149-.669 3.12-2.897-.743-2.526-2.526z" fill="#D87C30"/><path fill-rule="evenodd" clip-rule="evenodd" d="M16.018 23.373l2.526 2.377v2.377l-2.526-4.754z" fill="#EA8D3A"/><path fill-rule="evenodd" clip-rule="evenodd" d="M18.544 25.824l2.971.743.966 3.195-.668.371-3.27-1.931v-2.378z" fill="#F89D35"/><path fill-rule="evenodd" clip-rule="evenodd" d="M18.544 28.202l-.595 4.606 3.938-2.75-3.343-1.856z" fill="#EB8F35"/><path fill-rule="evenodd" clip-rule="evenodd" d="M22.11 23.447l.371 6.315-1.114-3.232.743-3.083z" fill="#EA8E3A"/><path fill-rule="evenodd" clip-rule="evenodd" d="M15.126 28.276l3.418-.074-.595 4.606-2.823-4.532z" fill="#D87C30"/><path fill-rule="evenodd" clip-rule="evenodd" d="M11.634 34.814l6.315-2.006-2.823-4.532-5.126.371 1.634 6.167z" fill="#EB8F35"/><path fill-rule="evenodd" clip-rule="evenodd" d="M21.664 17.652l-3.195 2.675-2.451 2.971 6.092.223-.446-5.869z" fill="#E8821E"/><path fill-rule="evenodd" clip-rule="evenodd" d="M17.95 32.808l3.937-2.749-.297 2.377v1.338l-2.675-.52-.966-.446zm11.886 0l-3.863-2.749.297 2.377v1.338l2.675-.52.891-.446z" fill="#DFCEC3"/><path fill-rule="evenodd" clip-rule="evenodd" d="M20.475 24.784l.817 1.709-2.897-.743 2.08-.966z" fill="#393939"/><path fill-rule="evenodd" clip-rule="evenodd" d="M11.56 10l10.104 7.652-1.709-4.16L11.56 10z" fill="#E88F35"/><path fill-rule="evenodd" clip-rule="evenodd" d="M11.56 10l-1.337 4.086.743 4.458-.52.297.743.668-.595.52.818.743-.52.446 1.188 1.486 5.572-1.709c2.724-2.179 4.061-3.293 4.012-3.343-.05-.05-3.418-2.6-10.104-7.652z" fill="#8E5A30"/><path fill-rule="evenodd" clip-rule="evenodd" d="M35.705 22.63l2.08 6.017-5.2-.297h-3.343v-2.6l.148-5.35.743.595 5.572 1.635z" fill="#F89D35"/><path fill-rule="evenodd" clip-rule="evenodd" d="M31.768 23.298l-6.092.149.668 3.12 2.898-.743 2.526-2.526z" fill="#D87C30"/><path fill-rule="evenodd" clip-rule="evenodd" d="M31.768 23.373l-2.526 2.377v2.377l2.526-4.754z" fill="#EA8D3A"/><path fill-rule="evenodd" clip-rule="evenodd" d="M29.242 25.824l-2.972.743-.966 3.195.669.371 3.269-1.931v-2.378z" fill="#F89D35"/><path fill-rule="evenodd" clip-rule="evenodd" d="M29.242 28.202l.594 4.606-3.863-2.675 3.269-1.931z" fill="#EB8F35"/><path fill-rule="evenodd" clip-rule="evenodd" d="M25.676 23.447l-.372 6.315 1.115-3.232-.743-3.083z" fill="#EA8E3A"/><path fill-rule="evenodd" clip-rule="evenodd" d="M32.66 28.276l-3.418-.074.594 4.606 2.823-4.532z" fill="#D87C30"/><path fill-rule="evenodd" clip-rule="evenodd" d="M36.15 34.814l-6.314-2.006 2.823-4.532 5.126.371-1.634 6.167z" fill="#EB8F35"/><path fill-rule="evenodd" clip-rule="evenodd" d="M26.122 17.652l3.194 2.675 2.452 2.971-6.092.223.446-5.869z" fill="#E8821E"/><path fill-rule="evenodd" clip-rule="evenodd" d="M27.31 24.784l-.817 1.709 2.897-.743-2.08-.966z" fill="#393939"/><path fill-rule="evenodd" clip-rule="evenodd" d="M36.225 10l-10.104 7.652 1.71-4.16L36.224 10z" fill="#E88F35"/><path fill-rule="evenodd" clip-rule="evenodd" d="M36.225 10l1.337 4.086-.742 4.458.52.297-.743.668.594.52-.817.743.52.446-1.189 1.486-5.572-1.709c-2.724-2.179-4.061-3.293-4.012-3.343.05-.05 3.418-2.6 10.104-7.652z" fill="#8E5A30"/></svg>