<svg width="48" height="48" fill="none" xmlns="http://www.w3.org/2000/svg"><path d="M33.313 22.55a1.878 1.878 0 010-2.674 1.878 1.878 0 012.674 0 1.878 1.878 0 010 2.673 1.878 1.878 0 01-2.674 0zM26.99 28.9c-.54-.54-.54-1.44 0-2.006.54-.54 1.44-.54 2.005 0 .54.54.54 1.44 0 2.006-.565.54-1.465.54-2.005 0zm10-3.343c-.54-.54-.54-1.44 0-2.005.54-.54 1.44-.54 2.006 0 .54.54.54 1.44 0 2.005-.566.566-1.465.566-2.005 0zM33.649 28.9c-.54-.54-.54-1.44 0-2.006.54-.54 1.44-.54 2.005 0 .54.54.54 1.44 0 2.006-.566.54-1.44.54-2.005 0zm7.018-.335a.963.963 0 010-1.337.962.962 0 011.337 0c.36.36.36.977 0 1.337-.386.36-.977.36-1.337 0zm-3.342 3.342a.963.963 0 010-1.336.962.962 0 011.337 0c.36.36.36.977 0 1.336-.386.36-.977.36-1.337 0zm-7.353-6.015a1.878 1.878 0 010-2.674 1.878 1.878 0 012.674 0 1.878 1.878 0 010 2.674c-.72.745-1.928.745-2.674 0zm0-6.66a1.878 1.878 0 010-2.673 1.878 1.878 0 012.674 0 1.878 1.878 0 010 2.674c-.72.72-1.928.72-2.674 0zm-3.316 3.317a1.878 1.878 0 010-2.673 1.878 1.878 0 012.673 0 1.878 1.878 0 010 2.673c-.745.746-1.953.746-2.673 0zm-6.71 0a1.878 1.878 0 010-2.673 1.878 1.878 0 012.673 0 1.878 1.878 0 010 2.673 1.878 1.878 0 01-2.673 0zm-6.35 6.35c-.54-.54-.54-1.44 0-2.005.54-.54 1.44-.54 2.005 0 .54.54.54 1.44 0 2.006-.54.54-1.44.54-2.006 0zm10.026-3.342c-.54-.54-.54-1.44 0-2.005.54-.54 1.44-.54 2.005 0 .54.54.54 1.44 0 2.005-.565.566-1.465.566-2.005 0zM20.279 28.9c-.54-.54-.54-1.44 0-2.006.54-.54 1.44-.54 2.005 0 .54.54.54 1.44 0 2.006-.566.54-1.465.54-2.005 0zm-13.01-.335a.962.962 0 010-1.337.962.962 0 011.338 0c.36.36.36.977 0 1.337-.386.36-.977.36-1.337 0zm3.343 3.342a.963.963 0 010-1.336.962.962 0 011.337 0c.36.36.36.977 0 1.336-.386.36-.977.36-1.337 0zm13.343 0a.963.963 0 010-1.336.962.962 0 011.337 0c.36.36.36.977 0 1.336-.386.36-.977.36-1.337 0zm-13.677-6.35c-.54-.54-.54-1.44 0-2.005.54-.54 1.44-.54 2.005 0 .54.54.54 1.44 0 2.005-.565.566-1.465.566-2.005 0zm6.324.335a1.878 1.878 0 010-2.674 1.878 1.878 0 012.674 0 1.878 1.878 0 010 2.674 1.878 1.878 0 01-2.674 0zm0-6.66a1.878 1.878 0 010-2.673 1.878 1.878 0 012.674 0 1.878 1.878 0 010 2.674c-.745.72-1.928.72-2.674 0zM13.26 22.55a1.878 1.878 0 010-2.673 1.878 1.878 0 012.674 0 1.878 1.878 0 010 2.673c-.72.746-1.928.746-2.674 0z" fill="#fff"/></svg>