<svg width="100" height="105" fill="none" xmlns="http://www.w3.org/2000/svg"><g clip-path="url(#clip0)"><path d="M38.683 105c21.365 0 38.684-3.07 38.684-6.857 0-3.787-17.32-6.858-38.684-6.858C17.32 91.285 0 94.355 0 98.143 0 101.93 17.32 105 38.683 105zm23.511-29.128c20.88 0 37.806-16.984 37.806-37.936C100 16.985 83.074 0 62.194 0S24.39 16.985 24.39 37.936c0 20.952 16.926 37.936 37.805 37.936z" fill="#3F3D56"/><path opacity=".05" d="M62.194 69.254c17.237 0 31.21-14.022 31.21-31.318S79.431 6.62 62.194 6.62c-17.236 0-31.21 14.021-31.21 31.317s13.974 31.318 31.21 31.318z" fill="#000"/><path opacity=".05" d="M62.194 63.603c14.127 0 25.58-11.491 25.58-25.667 0-14.176-11.453-25.667-25.58-25.667-14.127 0-25.579 11.491-25.579 25.667 0 14.176 11.452 25.667 25.58 25.667z" fill="#000"/><path opacity=".05" d="M62.194 56.339c10.13 0 18.34-8.24 18.34-18.403 0-10.164-8.21-18.403-18.34-18.403-10.128 0-18.34 8.239-18.34 18.403 0 10.163 8.212 18.403 18.34 18.403z" fill="#000"/><path d="M24.724 41.331s-2.973 8.395-1.652 11.378c1.321 2.982 3.413 5.854 3.413 5.854s-.77-16.68-1.761-17.232z" fill="#D0CDE1"/><path opacity=".1" d="M24.724 41.331s-2.973 8.395-1.652 11.378c1.321 2.982 3.413 5.854 3.413 5.854s-.77-16.68-1.761-17.232z" fill="#000"/><path d="M26.815 60.773s-.22 2.098-.33 2.209c-.11.11.11.331 0 .663-.11.331-.22.773 0 .883.22.11-1.211 9.832-1.211 9.832S21.751 79 23.182 86.29l.44 7.4s3.413.222 3.413-.993c0 0-.22-1.436-.22-2.1 0-.662.55-.662.22-.993-.33-.332-.33-.553-.33-.553s.55-.441.44-.552c-.11-.11.991-7.953.991-7.953s1.211-1.215 1.211-1.878v-.663s.55-1.436.55-1.546c0-.11 2.973-6.85 2.973-6.85l1.21 4.861 1.322 6.96s.66 6.296 1.981 8.726c0 0 2.312 7.953 2.312 7.732 0-.22 3.853-.773 3.743-1.767-.11-.994-2.312-14.912-2.312-14.912l.55-20.657-14.86.22z" fill="#2F2E41"/><path d="M23.843 93.139s-2.973 5.854-.991 6.075c1.982.221 2.752.221 3.633-.663.481-.483 1.456-1.131 2.241-1.62a2.905 2.905 0 001.376-2.765c-.058-.54-.26-.986-.755-1.027-1.321-.11-2.862-1.326-2.862-1.326l-2.642 1.326zm16.402 4.308s-2.972 5.854-.99 6.075c1.981.221 2.752.221 3.633-.663.481-.483 1.456-1.131 2.241-1.619a2.91 2.91 0 001.375-2.766c-.058-.54-.259-.986-.754-1.027-1.321-.11-2.862-1.326-2.862-1.326l-2.642 1.326z" fill="#2F2E41"/><path d="M37.104 31.75c2.556 0 4.627-2.079 4.627-4.643 0-2.565-2.071-4.644-4.627-4.644-2.556 0-4.628 2.08-4.628 4.644s2.072 4.643 4.628 4.643z" fill="#FFB8B8"/><path d="M34.13 28.632s-3.306 6.103-3.57 6.103c-.265 0 5.949 1.99 5.949 1.99s1.719-5.837 1.983-6.368l-4.363-1.725z" fill="#FFB8B8"/><path d="M39.2 35.31s-6.606-3.645-7.266-3.534c-.66.11-7.706 6.296-7.596 8.837.11 2.54.99 6.738.99 6.738s.331 11.71.992 11.82c.66.11-.11 2.099.11 2.099s15.412 0 15.522-.332c.11-.331-2.752-25.628-2.752-25.628z" fill="#D0CDE1"/><path d="M42.888 61.546s2.091 6.407.33 6.186c-1.762-.221-2.532-5.523-2.532-5.523l2.202-.663z" fill="#FFB8B8"/><path d="M37.273 34.924s-4.073.884-3.413 6.407c.661 5.523 1.872 11.046 1.872 11.046l4.073 8.948.44 1.657 2.973-.773-2.202-12.814s-.77-13.698-1.761-14.14a4.251 4.251 0 00-1.982-.33z" fill="#D0CDE1"/><path opacity=".1" d="M34.796 52.212l5.064 9.058-4.266-9.545-.798.487z" fill="#000"/><path d="M41.711 25.74l.016-.355.703.175a.79.79 0 00-.315-.58l.749-.043a8.096 8.096 0 00-5.407-3.353c-1.621-.236-3.426.105-4.537 1.313-.54.585-.878 1.33-1.12 2.09-.443 1.398-.533 3.066.392 4.203.94 1.155 2.583 1.382 4.063 1.525.521.05 1.067.097 1.55-.106a3.751 3.751 0 00-.208-1.64 1.096 1.096 0 01-.11-.523c.066-.441.653-.553 1.094-.493.442.06.972.151 1.262-.188.2-.234.188-.574.214-.88.072-.835 1.647-.97 1.654-1.146z" fill="#2F2E41"/><path d="M70.094 99.087c2.978 0 5.392-2.423 5.392-5.41 0-2.989-2.414-5.411-5.392-5.411s-5.392 2.422-5.392 5.41 2.414 5.41 5.392 5.41zM6.771 97.199c2.978 0 5.392-2.422 5.392-5.41 0-2.989-2.414-5.41-5.392-5.41S1.38 88.8 1.38 91.788s2.414 5.41 5.392 5.41z" fill="#5F549E"/><path d="M6.771 88.517a3.894 3.894 0 003.887-3.9c0-2.155-1.74-3.9-3.887-3.9a3.894 3.894 0 00-3.887 3.9c0 2.154 1.74 3.9 3.887 3.9z" fill="#5F549E"/><path d="M6.771 81.345a2.763 2.763 0 002.759-2.768 2.763 2.763 0 00-2.759-2.768 2.763 2.763 0 00-2.759 2.768 2.763 2.763 0 002.76 2.768z" fill="#5F549E"/></g><defs><clipPath id="clip0"><path fill="#fff" d="M0 0h100v105H0z"/></clipPath></defs></svg>