<svg width="16" height="16" viewBox="0 0 16 16" fill="none" xmlns="http://www.w3.org/2000/svg">
<path fill-rule="evenodd" clip-rule="evenodd" d="M16 8C16 12.4183 12.4183 16 8 16C3.58172 16 0 12.4183 0 8C0 3.58172 3.58172 0 8 0C12.4183 0 16 3.58172 16 8ZM4.99369 6.86671C4.14626 7.23644 3.27553 7.61633 2.47933 8.05456L2.47928 8.05463C2.06353 8.35879 2.61614 8.57393 3.13453 8.77575C3.21695 8.80783 3.2985 8.83958 3.37515 8.87129C3.43894 8.89088 3.50381 8.91153 3.56954 8.93246C4.14609 9.11601 4.78898 9.32068 5.34871 9.0128C6.26819 8.485 7.13591 7.87479 8.00298 7.26505C8.28705 7.06529 8.57105 6.86557 8.85677 6.66882C8.87015 6.66026 8.88526 6.65047 8.90177 6.63978C9.14519 6.48211 9.69261 6.12753 9.49013 6.61611C9.01129 7.13938 8.49841 7.60258 7.98273 8.06831C7.6352 8.38218 7.2864 8.69719 6.9459 9.03251C6.64933 9.27329 6.34139 9.75751 6.67346 10.0947C7.43831 10.6297 8.21511 11.1518 8.99145 11.6736C9.2441 11.8434 9.4967 12.0131 9.74882 12.1833C10.1761 12.5242 10.8439 12.2484 10.9378 11.7158C10.9796 11.4707 11.0215 11.2256 11.0635 10.9805C11.2953 9.62638 11.5271 8.27175 11.732 6.91319C11.7598 6.70008 11.7914 6.48698 11.8229 6.27377C11.8995 5.75702 11.9761 5.23963 12 4.7201C11.9383 4.20165 11.3092 4.31564 10.9591 4.43222C9.15961 5.11645 7.37809 5.8514 5.60361 6.59931C5.4026 6.6883 5.19883 6.77721 4.99369 6.86671Z" fill="white"/>
</svg>
