<svg width="16" height="16" viewBox="0 0 16 16" fill="none" xmlns="http://www.w3.org/2000/svg">
<path fill-rule="evenodd" clip-rule="evenodd" d="M8 0C3.58172 0 0 3.58172 0 8C0 12.4183 3.58172 16 8 16C12.4183 16 16 12.4183 16 8C16 3.58172 12.4183 0 8 0ZM8.08673 6.80749L8.06575 6.46146C8.00279 5.56463 8.55538 4.74547 9.42973 4.42769C9.75149 4.31471 10.2971 4.30058 10.6538 4.39945C10.7937 4.44182 11.0595 4.58305 11.2484 4.71016L11.5911 4.9432L11.9688 4.82315C12.1787 4.75959 12.4585 4.65367 12.5844 4.58305C12.7033 4.5195 12.8082 4.48419 12.8082 4.50537C12.8082 4.62542 12.5494 5.035 12.3326 5.26097C12.0388 5.57875 12.1227 5.607 12.7173 5.39515C13.074 5.2751 13.081 5.2751 13.0111 5.40927C12.9691 5.47989 12.7523 5.72705 12.5214 5.95302C12.1297 6.34141 12.1087 6.38378 12.1087 6.70862C12.1087 7.21 11.8709 8.25513 11.6331 8.82713C11.1924 9.90051 10.2481 11.0092 9.30383 11.5671C7.97481 12.3509 6.20513 12.5486 4.71523 12.0896C4.2186 11.9343 3.36523 11.5388 3.36523 11.4682C3.36523 11.447 3.62404 11.4188 3.93881 11.4117C4.59632 11.3976 5.25383 11.214 5.81342 10.8891L6.19114 10.6632L5.75746 10.5149C5.14192 10.303 4.58933 9.81577 4.44943 9.35676C4.40746 9.20846 4.42145 9.2014 4.81316 9.2014L5.21886 9.19434L4.87611 9.03192C4.47041 8.82713 4.09969 8.48111 3.91782 8.12802C3.78492 7.8738 3.61705 7.23119 3.66601 7.18176C3.68 7.16057 3.82689 7.20294 3.99477 7.25944C4.47741 7.43598 4.54036 7.39361 4.26057 7.09702C3.73596 6.56033 3.57508 5.76235 3.82689 5.00675L3.9458 4.66779L4.40746 5.1268C5.35176 6.05188 6.46393 6.6027 7.73699 6.76512L8.08673 6.80749Z" fill="white"/>
</svg>
