<svg width="22" height="22" viewBox="0 0 22 22" fill="none" xmlns="http://www.w3.org/2000/svg">
<path fill-rule="evenodd" clip-rule="evenodd" d="M8.83607 4C9.17476 4 9.47546 4.20843 9.58257 4.51745L13.1639 14.8502L14.5814 10.7607C14.6885 10.4517 14.9892 10.2432 15.3279 10.2432H18.2131C18.6477 10.2432 19 10.5821 19 11C19 11.4179 18.6477 11.7568 18.2131 11.7568H15.895L13.9104 17.4826C13.8033 17.7916 13.5026 18 13.1639 18C12.8252 18 12.5245 17.7916 12.4174 17.4826L8.83607 7.14983L7.41864 11.2393C7.31153 11.5483 7.01083 11.7568 6.67213 11.7568H3.78689C3.3523 11.7568 3 11.4179 3 11C3 10.5821 3.3523 10.2432 3.78689 10.2432H6.10498L8.08956 4.51745C8.19667 4.20843 8.49737 4 8.83607 4Z" fill="white"/>
</svg>
