<svg width="48" height="48" fill="none" xmlns="http://www.w3.org/2000/svg"><path d="M15.584 19.295c4.445-4.352 11.652-4.352 16.097 0l.535.524a.549.549 0 010 .788l-1.83 1.792a.289.289 0 01-.402 0l-.737-.721c-3.1-3.036-8.128-3.036-11.23 0l-.788.772a.289.289 0 01-.402 0l-1.83-1.792a.549.549 0 010-.788l.587-.575zm19.882 3.706l1.629 1.594a.549.549 0 010 .788l-7.345 7.191a.578.578 0 01-.804 0l-5.213-5.103a.144.144 0 00-.201 0l-5.212 5.103a.578.578 0 01-.805 0l-7.345-7.19a.549.549 0 010-.789l1.629-1.594a.578.578 0 01.805 0l5.212 5.103a.144.144 0 00.202 0l5.212-5.103a.578.578 0 01.805 0l5.212 5.103a.144.144 0 00.202 0l5.212-5.103a.578.578 0 01.805 0z" fill="#3B99FC"/></svg>