<svg width="40" height="40" fill="none" xmlns="http://www.w3.org/2000/svg"><path d="M33.668 27.934V11.988L19.834 4 6 12.052V28l13.834 8 13.834-8.066zm-22.752-2.788V14.867l8.918-5.198 8.918 5.16v10.278l-8.918 5.197-8.918-5.158z" fill="#B3B3B3"/><path d="M6 12.052l4.915 2.815 8.919-5.185 8.918 5.146 4.916-2.841L19.834 4 6 12.052z" fill="#fff"/><path d="M6 12.052L19.834 4l13.834 7.987v15.947l-13.834 8.053-13.834-8V12.052z" stroke="#B3B3B3" stroke-width=".266" stroke-miterlimit="10"/><path d="M10.915 14.867l8.919-5.185 8.918 5.146v10.278l-8.918 5.198-8.918-5.158V14.867z" stroke="#B3B3B3" stroke-width=".266" stroke-miterlimit="10"/></svg>