<svg width="58" height="45" fill="none" xmlns="http://www.w3.org/2000/svg"><path fill-rule="evenodd" clip-rule="evenodd" d="M15.857 4.092c1.74-.1 3.478-.092 5.218-.092h8.817c1.774 0 3.512-.008 5.251.092 1.581.09 3.121.282 4.654.711 3.227.902 6.045 2.786 8.082 5.457a15.236 15.236 0 010 18.48c-2.037 2.67-4.855 4.555-8.082 5.457-1.533.43-3.073.62-4.654.711-1.739.1-3.477.091-5.217.091L21.107 35c-1.772 0-3.51.008-5.25-.092-1.58-.09-3.12-.282-4.653-.71-3.227-.903-6.045-2.788-8.082-5.458a15.234 15.234 0 010-18.48c2.037-2.67 4.855-4.555 8.082-5.457 1.533-.429 3.073-.62 4.653-.71z" fill="#5F549E"/><g filter="url(#filter0_dd)"><path fill-rule="evenodd" clip-rule="evenodd" d="M35.5 33C42.956 33 49 26.956 49 19.5S42.956 6 35.5 6 22 12.044 22 19.5 28.044 33 35.5 33z" fill="#fff"/><path d="M35.5 33.25c7.594 0 13.75-6.156 13.75-13.75S43.094 5.75 35.5 5.75 21.75 11.906 21.75 19.5s6.156 13.75 13.75 13.75z" stroke="#2E2C3D" stroke-width=".5"/></g><defs><filter id="filter0_dd" x="13.5" y=".5" width="44" height="44" filterUnits="userSpaceOnUse" color-interpolation-filters="sRGB"><feFlood flood-opacity="0" result="BackgroundImageFix"/><feColorMatrix in="SourceAlpha" values="0 0 0 0 0 0 0 0 0 0 0 0 0 0 0 0 0 0 127 0" result="hardAlpha"/><feOffset dy="3"/><feGaussianBlur stdDeviation=".5"/><feColorMatrix values="0 0 0 0 0 0 0 0 0 0 0 0 0 0 0 0 0 0 0.06 0"/><feBlend in2="BackgroundImageFix" result="effect1_dropShadow"/><feColorMatrix in="SourceAlpha" values="0 0 0 0 0 0 0 0 0 0 0 0 0 0 0 0 0 0 127 0" result="hardAlpha"/><feOffset dy="3"/><feGaussianBlur stdDeviation="4"/><feColorMatrix values="0 0 0 0 0 0 0 0 0 0 0 0 0 0 0 0 0 0 0.15 0"/><feBlend in2="effect1_dropShadow" result="effect2_dropShadow"/><feBlend in="SourceGraphic" in2="effect2_dropShadow" result="shape"/></filter></defs></svg>