<svg width="24" height="24" viewBox="0 0 24 24" fill="none" xmlns="http://www.w3.org/2000/svg">
<path d="M18.1532 19.1143C18.0973 19.2566 18.0124 19.385 17.904 19.491C17.7956 19.597 17.6663 19.6781 17.5248 19.7288C17.3832 19.7796 17.2327 19.7988 17.0833 19.7852C16.9339 19.7717 16.789 19.7256 16.6585 19.6502L12.609 16.4345L10.01 18.8849C9.9497 18.9305 9.87914 18.9598 9.80486 18.9702C9.73057 18.9805 9.65491 18.9716 9.58486 18.9443L10.0831 14.3884L10.099 14.4013L10.1092 14.3114C10.1092 14.3114 17.3961 7.53115 17.693 7.24227C17.9935 6.95415 17.8943 6.89164 17.8943 6.89164C17.9115 6.5402 17.3551 6.89164 17.3551 6.89164L7.70008 13.2397L3.67925 11.8402C3.67925 11.8402 3.06169 11.6138 3.00352 11.1161C2.94236 10.6222 3.69937 10.3538 3.69937 10.3538L19.6858 3.86328C19.6858 3.86328 21 3.26488 21 4.25585L18.1532 19.1143Z" fill="#8E8E9A"/>
</svg>
