<svg width="96" height="28" viewBox="0 0 96 28" fill="none" xmlns="http://www.w3.org/2000/svg">
<path d="M23.75 20.4468V13.9894V7.48936L12.375 1L1 7.54255V14V20.5L12.375 27L23.75 20.4468ZM5.04182 18.1809V13.9894V9.82979L12.375 5.60638L19.7082 9.79787V13.9894V18.1489L12.375 22.3723L5.04182 18.1809Z" fill="#5F549E"/>
<path d="M1 7.54255L5.04182 9.82979L12.375 5.61702L19.7082 9.79787L23.75 7.48936L12.375 1L1 7.54255Z" fill="white"/>
<path d="M1 7.54255L12.375 1L23.75 7.48936V20.4468L12.375 26.9894L1 20.4894V7.54255Z" stroke="#5F549E" stroke-width="0.399071" stroke-miterlimit="10"/>
<path d="M5.04182 9.82983L12.375 5.61707L19.7082 9.79792V18.149L12.375 22.3724L5.04182 18.1809V9.82983Z" stroke="#5F549E" stroke-width="0.399071" stroke-miterlimit="10"/>
<path d="M36.4967 10.0263V20.9521H33.7123V10.0263H30.25V7.4064H39.959V10.0263H36.4967Z" fill="white"/>
<path d="M40.8944 20.9521V10.7637H43.6056V12.976H43.6972C43.7461 12.6914 43.8316 12.4197 43.9537 12.161C44.0758 11.8893 44.2346 11.6499 44.43 11.4429C44.6376 11.2359 44.8818 11.0742 45.1627 10.9578C45.4436 10.8284 45.7734 10.7637 46.152 10.7637H46.6282V13.4418H45.9504C45.1566 13.4418 44.5643 13.5518 44.1735 13.7717C43.7949 13.9916 43.6056 14.3992 43.6056 14.9943V20.9521H40.8944Z" fill="white"/>
<path d="M49.6563 9.67695C49.1067 9.67695 48.7037 9.54757 48.4473 9.28882C48.203 9.01713 48.0809 8.67428 48.0809 8.26028V7.83334C48.0809 7.41934 48.203 7.08296 48.4473 6.82421C48.7037 6.55252 49.1067 6.41667 49.6563 6.41667C50.2059 6.41667 50.6028 6.55252 50.847 6.82421C51.1035 7.08296 51.2317 7.41934 51.2317 7.83334V8.26028C51.2317 8.67428 51.1035 9.01713 50.847 9.28882C50.6028 9.54757 50.2059 9.67695 49.6563 9.67695ZM48.3007 10.7637H51.0119V20.9521H48.3007V10.7637Z" fill="white"/>
<path d="M53.5423 10.7637H56.2535V12.4715H56.3451C56.4795 11.9022 56.7848 11.4365 57.2611 11.0742C57.7496 10.712 58.3053 10.5308 58.9281 10.5308C60.1494 10.5308 61.0714 10.9836 61.6943 11.8893C62.3171 12.7949 62.6285 14.1145 62.6285 15.8482C62.6285 17.5818 62.3171 18.9079 61.6943 19.8265C61.0714 20.7321 60.1494 21.1849 58.9281 21.1849C58.6106 21.1849 58.3114 21.1332 58.0305 21.0297C57.7496 20.9391 57.4931 20.8097 57.2611 20.6416C57.0413 20.4604 56.852 20.2534 56.6932 20.0206C56.5344 19.7747 56.4184 19.516 56.3451 19.2443H56.2535V24.8333H53.5423V10.7637ZM58.0305 18.8562C58.5434 18.8562 58.9647 18.6686 59.2945 18.2934C59.6364 17.9053 59.8074 17.3878 59.8074 16.7409V14.9749C59.8074 14.328 59.6364 13.817 59.2945 13.4418C58.9647 13.0537 58.5434 12.8596 58.0305 12.8596C57.5175 12.8596 57.0901 12.9954 56.7482 13.2671C56.4184 13.5259 56.2535 13.8881 56.2535 14.3539V17.3619C56.2535 17.8276 56.4184 18.1964 56.7482 18.468C57.0901 18.7268 57.5175 18.8562 58.0305 18.8562Z" fill="white"/>
<path d="M67.3804 20.9521C66.4523 20.9521 65.7684 20.7127 65.3287 20.234C64.9013 19.7553 64.6875 19.0632 64.6875 18.1575V6.59133H67.3987V18.7203H68.6078V20.9521H67.3804Z" fill="white"/>
<path d="M74.2451 21.1849C73.5124 21.1849 72.859 21.062 72.285 20.8162C71.711 20.5575 71.2225 20.2017 70.8195 19.7489C70.4287 19.2831 70.1295 18.7203 69.9219 18.0605C69.7265 17.4007 69.6288 16.6632 69.6288 15.8482C69.6288 15.046 69.7265 14.3215 69.9219 13.6747C70.1173 13.0148 70.4043 12.4521 70.7829 11.9863C71.1737 11.5206 71.65 11.1648 72.2117 10.919C72.7735 10.6602 73.4147 10.5308 74.1352 10.5308C74.929 10.5308 75.6068 10.6731 76.1686 10.9578C76.7426 11.2424 77.2067 11.6241 77.5609 12.1027C77.9272 12.5814 78.1898 13.1378 78.3486 13.7717C78.5195 14.3927 78.605 15.046 78.605 15.7317V16.5856H72.4316V16.7409C72.4316 17.4136 72.6025 17.9505 72.9445 18.3516C73.2865 18.7397 73.8238 18.9338 74.5566 18.9338C75.1183 18.9338 75.5763 18.8174 75.9305 18.5845C76.2846 18.3387 76.6144 18.0476 76.9197 17.7112L78.2753 19.4966C77.8479 20.027 77.2861 20.441 76.59 20.7386C75.9061 21.0362 75.1244 21.1849 74.2451 21.1849ZM74.1902 12.6461C73.6406 12.6461 73.2071 12.8402 72.8895 13.2283C72.5842 13.6035 72.4316 14.1081 72.4316 14.742V14.8973H75.8022V14.7226C75.8022 14.1016 75.6679 13.6035 75.3992 13.2283C75.1428 12.8402 74.7398 12.6461 74.1902 12.6461Z" fill="white"/>
<path d="M80.6663 20.9521V7.4064H89.148V10.0263H83.4508V12.8014H88.3053V15.4018H83.4508V20.9521H80.6663Z" fill="white"/>
<path d="M92.5912 9.67695C92.0417 9.67695 91.6387 9.54757 91.3822 9.28882C91.1379 9.01713 91.0158 8.67428 91.0158 8.26028V7.83334C91.0158 7.41934 91.1379 7.08296 91.3822 6.82421C91.6387 6.55252 92.0417 6.41667 92.5912 6.41667C93.1408 6.41667 93.5377 6.55252 93.782 6.82421C94.0384 7.08296 94.1667 7.41934 94.1667 7.83334V8.26028C94.1667 8.67428 94.0384 9.01713 93.782 9.28882C93.5377 9.54757 93.1408 9.67695 92.5912 9.67695ZM91.2356 10.7637H93.9468V20.9521H91.2356V10.7637Z" fill="white"/>
</svg>
