<svg width="145" height="50" viewBox="0 0 145 50" fill="none" xmlns="http://www.w3.org/2000/svg">
<path d="M43 36.9018V24.9804V12.9804L22 1L1 13.0786V25V37L22 49L43 36.9018ZM8.46183 32.7185V24.9804V17.3011L22 9.50409L35.5382 17.2422V24.9804V32.6596L22 40.4566L8.46183 32.7185Z" fill="#5F549E"/>
<path d="M1 13.0786L8.46183 17.3011L22 9.52373L35.5382 17.2422L43 12.9804L22 1L1 13.0786Z" fill="white"/>
<path d="M1 13.0786L22 1L43 12.9804V36.9018L22 48.9804L1 36.9804V13.0786Z" stroke="#5F549E" stroke-width="0.399071" stroke-miterlimit="10"/>
<path d="M8.46191 17.3013L22.0001 9.52393L35.5383 17.2424V32.6598L22.0001 40.4568L8.46191 32.7187V17.3013Z" stroke="#5F549E" stroke-width="0.399071" stroke-miterlimit="10"/>
<path d="M71.4635 13.7901V17.4561H65.4826V36.4351H60.9809V17.4561H55V13.7901H71.4635Z" fill="#1C2535"/>
<path d="M79.2498 21.2519C79.8286 20.3003 80.5789 19.5541 81.5007 19.0134C82.4439 18.4726 83.5158 18.2023 84.7162 18.2023V22.9714H83.5265C82.1117 22.9714 81.0398 23.3066 80.311 23.9771C79.6035 24.6476 79.2498 25.8155 79.2498 27.4809V36.4351H74.7481V18.4618H79.2498V21.2519Z" fill="#1C2535"/>
<path d="M90.0314 16.3206C89.2382 16.3206 88.5737 16.0719 88.0378 15.5744C87.5233 15.0553 87.2661 14.4173 87.2661 13.6603C87.2661 12.9033 87.5233 12.2761 88.0378 11.7786C88.5737 11.2595 89.2382 11 90.0314 11C90.8246 11 91.4784 11.2595 91.9929 11.7786C92.5288 12.2761 92.7968 12.9033 92.7968 13.6603C92.7968 14.4173 92.5288 15.0553 91.9929 15.5744C91.4784 16.0719 90.8246 16.3206 90.0314 16.3206ZM92.2501 18.4618V36.4351H87.7484V18.4618H92.2501Z" fill="#1C2535"/>
<path d="M101.2 21.0573C101.778 20.2354 102.572 19.5541 103.579 19.0134C104.608 18.451 105.776 18.1698 107.084 18.1698C108.606 18.1698 109.978 18.5483 111.2 19.3053C112.443 20.0623 113.419 21.1438 114.126 22.5496C114.855 23.9338 115.219 25.5452 115.219 27.3836C115.219 29.222 114.855 30.855 114.126 32.2824C113.419 33.6883 112.443 34.7805 111.2 35.5592C109.978 36.3378 108.606 36.7271 107.084 36.7271C105.776 36.7271 104.619 36.4567 103.611 35.916C102.625 35.3753 101.821 34.694 101.2 33.8721V45H96.6978V18.4618H101.2V21.0573ZM110.621 27.3836C110.621 26.3022 110.396 25.3721 109.946 24.5935C109.517 23.7933 108.938 23.1877 108.209 22.7767C107.502 22.3658 106.73 22.1603 105.894 22.1603C105.08 22.1603 104.308 22.3766 103.579 22.8092C102.872 23.2201 102.293 23.8257 101.843 24.626C101.414 25.4262 101.2 26.367 101.2 27.4485C101.2 28.5299 101.414 29.4707 101.843 30.271C102.293 31.0712 102.872 31.6877 103.579 32.1202C104.308 32.5312 105.08 32.7366 105.894 32.7366C106.73 32.7366 107.502 32.5204 108.209 32.0878C108.938 31.6552 109.517 31.0388 109.946 30.2386C110.396 29.4383 110.621 28.4866 110.621 27.3836Z" fill="#1C2535"/>
<path d="M122.992 12.4275V36.4351H118.491V12.4275H122.992Z" fill="#1C2535"/>
<path d="M144 27.0592C144 27.708 143.957 28.292 143.871 28.8111H130.848C130.956 30.1088 131.406 31.1253 132.199 31.8607C132.992 32.5961 133.968 32.9637 135.125 32.9637C136.797 32.9637 137.987 32.2392 138.694 30.7901H143.55C143.035 32.5204 142.049 33.9478 140.592 35.0725C139.134 36.1756 137.344 36.7271 135.222 36.7271C133.507 36.7271 131.963 36.3486 130.591 35.5916C129.241 34.813 128.18 33.7207 127.408 32.3149C126.658 30.909 126.282 29.2869 126.282 27.4485C126.282 25.5884 126.658 23.9555 127.408 22.5496C128.158 21.1438 129.209 20.0623 130.559 19.3053C131.91 18.5483 133.464 18.1698 135.222 18.1698C136.915 18.1698 138.426 18.5375 139.756 19.2729C141.106 20.0083 142.146 21.0573 142.875 22.4198C143.625 23.7608 144 25.3073 144 27.0592ZM139.337 25.7614C139.316 24.5935 138.898 23.6635 138.083 22.9714C137.269 22.2576 136.272 21.9008 135.093 21.9008C133.978 21.9008 133.035 22.2468 132.263 22.9389C131.513 23.6094 131.052 24.5503 130.881 25.7614H139.337Z" fill="#1C2535"/>
</svg>
