<svg width="73" height="26" fill="none" xmlns="http://www.w3.org/2000/svg"><path d="M36.232 6.895v1.833h-2.99v9.49H30.99v-9.49H28V6.895h8.232zm3.893 3.731a3.2 3.2 0 011.125-1.12c.472-.27 1.008-.405 1.608-.405v2.385h-.595c-.707 0-1.243.167-1.607.502-.354.336-.531.92-.531 1.753v4.477h-2.25V9.23h2.25v1.395zm5.391-2.466c-.397 0-.73-.124-.997-.373a1.307 1.307 0 01-.386-.957c0-.378.129-.692.386-.94.268-.26.6-.39.997-.39.396 0 .723.13.98.39.268.248.402.562.402.94 0 .379-.134.698-.402.957-.257.249-.584.373-.98.373zm1.11 1.07v8.988h-2.252V9.23h2.251zm4.474 1.299c.29-.411.686-.752 1.19-1.022.514-.281 1.098-.422 1.752-.422.761 0 1.447.19 2.058.568.622.378 1.11.919 1.463 1.622.364.692.547 1.498.547 2.417 0 .919-.183 1.736-.547 2.45-.354.702-.841 1.248-1.463 1.638a3.75 3.75 0 01-2.058.583c-.654 0-1.233-.135-1.736-.405a3.74 3.74 0 01-1.206-1.022V22.5h-2.251V9.23h2.25v1.299zm4.71 3.163c0-.54-.112-1.006-.337-1.395a2.21 2.21 0 00-.868-.909 2.264 2.264 0 00-1.158-.308 2.23 2.23 0 00-1.158.325 2.354 2.354 0 00-.868.908c-.214.4-.321.87-.321 1.411 0 .54.107 1.011.321 1.412.225.4.515.708.868.924.365.206.75.308 1.158.308.418 0 .804-.108 1.158-.324.364-.216.654-.525.868-.925.225-.4.337-.876.337-1.427zm6.186-7.478v12.004h-2.25V6.214h2.25zM72.5 13.53c0 .324-.021.616-.064.876h-6.512c.054.648.279 1.157.675 1.524.397.368.885.552 1.464.552.836 0 1.43-.362 1.784-1.087h2.428a4.136 4.136 0 01-1.48 2.141c-.728.552-1.623.827-2.684.827-.858 0-1.63-.189-2.315-.567a4.162 4.162 0 01-1.592-1.639c-.375-.703-.563-1.514-.563-2.433 0-.93.188-1.746.563-2.45a3.94 3.94 0 011.576-1.621c.675-.379 1.452-.568 2.33-.568.848 0 1.603.184 2.268.551a3.788 3.788 0 011.56 1.574c.374.67.562 1.444.562 2.32zm-2.331-.65c-.011-.583-.22-1.048-.627-1.394-.408-.357-.906-.536-1.496-.536-.557 0-1.029.173-1.414.52-.376.335-.606.805-.692 1.41h4.229z" fill="#fff"/><path d="M22 18.95V6.99L11.5 1 1 7.04V19l10.5 6L22 18.95zM4.73 16.86V9.15l6.77-3.898 6.77 3.87v7.708l-6.77 3.898-6.77-3.869z" fill="#5F549E"/><path d="M1 7.04l3.73 2.11 6.77-3.888 6.77 3.86L22 6.99 11.5 1 1 7.04z" fill="#fff"/><path d="M1 7.04L11.5 1 22 6.99v11.96l-10.5 6.04-10.5-6V7.04z" stroke="#5F549E" stroke-width=".2" stroke-miterlimit="10"/><path d="M4.731 9.15L11.5 5.263l6.77 3.86v7.708l-6.77 3.898-6.769-3.869V9.151z" stroke="#5F549E" stroke-width=".2" stroke-miterlimit="10"/></svg>