<svg width="183" height="52" viewBox="0 0 183 52" fill="none" xmlns="http://www.w3.org/2000/svg">
<path d="M44.75 38.3977V25.9795V13.4795L22.875 1L1 13.5818V26V38.5L22.875 51L44.75 38.3977ZM8.77274 34.0401V25.9795V17.9804L22.875 9.85843L36.9773 17.919V25.9795V33.9787L22.875 42.1007L8.77274 34.0401Z" fill="#5F549E"/>
<path d="M1 13.5818L8.77274 17.9804L22.875 9.87889L36.9773 17.919L44.75 13.4795L22.875 1L1 13.5818Z" fill="white"/>
<path d="M1 13.5818L22.875 1L44.75 13.4795V38.3977L22.875 50.9795L1 38.4795V13.5818Z" stroke="#5F549E" stroke-width="0.399071" stroke-miterlimit="10"/>
<path d="M8.77274 17.9804L22.875 9.87897L36.9773 17.9191V33.9788L22.875 42.1007L8.77274 34.0402V17.9804Z" stroke="#5F549E" stroke-width="0.399071" stroke-miterlimit="10"/>
<path d="M69.263 18.3582V39.3693H63.9082V18.3582H57.25V13.32H75.9212V18.3582H69.263Z" fill="#1C2535"/>
<path d="M77.7201 39.3693V19.7763H82.9339V24.0308H83.11C83.204 23.4835 83.3684 22.961 83.6032 22.4634C83.8381 21.9409 84.1434 21.4806 84.5192 21.0825C84.9184 20.6845 85.3882 20.3735 85.9283 20.1495C86.4685 19.9007 87.1026 19.7763 87.8307 19.7763H88.7466V24.9265H87.4432C85.9166 24.9265 84.7775 25.138 84.026 25.5609C83.2979 25.9839 82.9339 26.7676 82.9339 27.9121V39.3693H77.7201Z" fill="#1C2535"/>
<path d="M94.5698 17.6864C93.513 17.6864 92.7379 17.4376 92.2447 16.94C91.775 16.4176 91.5401 15.7582 91.5401 14.9621V14.141C91.5401 13.3449 91.775 12.698 92.2447 12.2004C92.7379 11.6779 93.513 11.4167 94.5698 11.4167C95.6267 11.4167 96.39 11.6779 96.8597 12.2004C97.3529 12.698 97.5995 13.3449 97.5995 14.141V14.9621C97.5995 15.7582 97.3529 16.4176 96.8597 16.94C96.39 17.4376 95.6267 17.6864 94.5698 17.6864ZM91.9629 19.7763H97.1767V39.3693H91.9629V19.7763Z" fill="#1C2535"/>
<path d="M102.043 19.7763H107.257V23.0605H107.433C107.691 21.9658 108.278 21.0701 109.194 20.3735C110.134 19.6768 111.202 19.3285 112.4 19.3285C114.749 19.3285 116.522 20.1993 117.72 21.9409C118.917 23.6825 119.516 26.2203 119.516 29.5542C119.516 32.8881 118.917 35.4383 117.72 37.2048C116.522 38.9464 114.749 39.8172 112.4 39.8172C111.79 39.8172 111.214 39.7177 110.674 39.5186C110.134 39.3445 109.641 39.0957 109.194 38.7722C108.772 38.4239 108.408 38.0258 108.102 37.578C107.797 37.1053 107.574 36.6077 107.433 36.0852H107.257V46.8333H102.043V19.7763ZM110.674 35.3388C111.66 35.3388 112.471 34.978 113.105 34.2565C113.762 33.5101 114.091 32.5149 114.091 31.2709V27.8748C114.091 26.6308 113.762 25.648 113.105 24.9265C112.471 24.1801 111.66 23.8069 110.674 23.8069C109.688 23.8069 108.866 24.0681 108.208 24.5906C107.574 25.0882 107.257 25.7849 107.257 26.6805V32.4651C107.257 33.3608 107.574 34.0699 108.208 34.5924C108.866 35.09 109.688 35.3388 110.674 35.3388Z" fill="#1C2535"/>
<path d="M128.655 39.3693C126.87 39.3693 125.555 38.9091 124.709 37.9885C123.887 37.0679 123.476 35.7369 123.476 33.9953V11.7526H128.69V35.0775H131.015V39.3693H128.655Z" fill="#1C2535"/>
<path d="M141.856 39.8172C140.447 39.8172 139.19 39.5808 138.087 39.1081C136.983 38.6105 136.043 37.9263 135.268 37.0555C134.517 36.1598 133.941 35.0775 133.542 33.8087C133.166 32.5398 132.978 31.1216 132.978 29.5542C132.978 28.0116 133.166 26.6183 133.542 25.3743C133.918 24.1055 134.47 23.0232 135.198 22.1275C135.949 21.2318 136.865 20.5476 137.946 20.0749C139.026 19.5773 140.259 19.3285 141.645 19.3285C143.171 19.3285 144.475 19.6022 145.555 20.1495C146.659 20.6969 147.551 21.4309 148.232 22.3514C148.937 23.272 149.442 24.3418 149.747 25.5609C150.076 26.7552 150.24 28.0116 150.24 29.3303V30.9723H138.368V31.2709C138.368 32.5647 138.697 33.5972 139.355 34.3685C140.012 35.1149 141.046 35.4881 142.455 35.4881C143.535 35.4881 144.416 35.2641 145.097 34.8163C145.778 34.3436 146.412 33.7838 146.999 33.1369L149.606 36.5703C148.784 37.5904 147.704 38.3866 146.365 38.9588C145.05 39.5311 143.547 39.8172 141.856 39.8172ZM141.75 23.3964C140.693 23.3964 139.86 23.7696 139.249 24.516C138.662 25.2375 138.368 26.2078 138.368 27.4269V27.7255H144.85V27.3896C144.85 26.1954 144.592 25.2375 144.075 24.516C143.582 23.7696 142.807 23.3964 141.75 23.3964Z" fill="#1C2535"/>
<path d="M154.205 39.3693V13.32H170.515V18.3582H159.559V23.6949H168.895V28.6958H159.559V39.3693H154.205Z" fill="#1C2535"/>
<path d="M177.137 17.6864C176.08 17.6864 175.305 17.4376 174.812 16.94C174.342 16.4176 174.107 15.7582 174.107 14.9621V14.141C174.107 13.3449 174.342 12.698 174.812 12.2004C175.305 11.6779 176.08 11.4167 177.137 11.4167C178.194 11.4167 178.957 11.6779 179.427 12.2004C179.92 12.698 180.167 13.3449 180.167 14.141V14.9621C180.167 15.7582 179.92 16.4176 179.427 16.94C178.957 17.4376 178.194 17.6864 177.137 17.6864ZM174.53 19.7763H179.744V39.3693H174.53V19.7763Z" fill="#1C2535"/>
</svg>
