<svg width="24" height="24" viewBox="0 0 24 24" fill="none" xmlns="http://www.w3.org/2000/svg">
<path d="M21 6.16877C20.3379 6.46256 19.6268 6.66117 18.8791 6.75044C19.6422 6.2935 20.2268 5.56942 20.5028 4.70764C19.7779 5.13816 18.9846 5.44125 18.1574 5.60374C17.4842 4.88613 16.5241 4.43811 15.462 4.43811C13.4234 4.43811 11.77 6.0908 11.77 8.13064C11.77 8.41967 11.8026 8.70163 11.8652 8.97236C8.79624 8.81812 6.07545 7.34808 4.25428 5.11434C3.93628 5.65988 3.75425 6.29417 3.75425 6.97093C3.75425 8.25185 4.40622 9.38201 5.39688 10.044C4.81043 10.0259 4.23685 9.86757 3.72408 9.58238V9.62905C3.72408 11.4183 4.99671 12.9102 6.68605 13.2495C6.37572 13.3345 6.05005 13.379 5.71312 13.379C5.47491 13.379 5.24379 13.3564 5.01802 13.314C5.48792 14.7805 6.85163 15.848 8.46699 15.8781C7.20323 16.8688 5.61084 17.4593 3.88132 17.4593C3.58343 17.4593 3.28902 17.4415 3 17.4067C4.63438 18.4547 6.57495 19.0665 8.66031 19.0665C15.452 19.0665 19.1664 13.4399 19.1664 8.56041C19.1664 8.40022 19.1629 8.24122 19.1551 8.08279C19.8788 7.55934 20.5035 6.91122 21 6.16877Z" fill="#8E8E9A"/>
</svg>
