<svg width="16" height="13" viewBox="0 0 16 13" fill="none" xmlns="http://www.w3.org/2000/svg">
<path fill-rule="evenodd" clip-rule="evenodd" d="M8.58123 9.73141C8.30386 10.0068 8.02361 10.2793 7.74046 10.549C7.45731 10.8187 7.17706 11.0912 6.89969 11.3666C6.79568 11.4584 6.68877 11.5301 6.57898 11.5817C6.46919 11.6334 6.34495 11.6592 6.20627 11.6592C6.11381 11.6477 6.03869 11.6219 5.98091 11.5817C5.92312 11.5416 5.8769 11.4756 5.84223 11.3838C5.6342 10.7297 5.42329 10.0728 5.20948 9.41298C4.99568 8.75317 4.77898 8.09623 4.5594 7.44216C4.53629 7.37331 4.51028 7.32167 4.48139 7.28725C4.4525 7.25282 4.40338 7.22413 4.33404 7.20119C3.82553 7.05201 3.32281 6.89997 2.82585 6.74506C2.3289 6.59014 1.82618 6.43237 1.31767 6.27171C1.24833 6.24876 1.18187 6.22581 1.11831 6.20286C1.05475 6.17992 0.994073 6.15123 0.936288 6.1168C0.797603 6.03648 0.722484 5.93607 0.710927 5.81558C0.69937 5.6951 0.751375 5.58896 0.866946 5.49716C0.959402 5.41683 1.05764 5.34798 1.16165 5.29061C1.26566 5.23323 1.36967 5.18733 1.47369 5.15291C2.10932 4.90046 2.74495 4.65375 3.38059 4.41277C4.01623 4.1718 4.65185 3.93083 5.28749 3.68985C6.05025 3.3915 6.8159 3.09603 7.58444 2.80341C8.35298 2.5108 9.12151 2.21819 9.89006 1.92558C10.6586 1.63297 11.4271 1.33749 12.1957 1.03914C12.9642 0.74079 13.7299 0.448183 14.4926 0.161308C14.7931 0.0465568 15.0416 0.0580332 15.238 0.195733C15.4345 0.333432 15.5212 0.562929 15.4981 0.884229C15.475 1.09078 15.4403 1.29446 15.3941 1.49527C15.3478 1.69608 15.3016 1.89976 15.2554 2.10631C15.0936 2.89808 14.926 3.69272 14.7527 4.49023C14.5793 5.28774 14.4088 6.08524 14.2413 6.88275C14.0737 7.68027 13.9032 8.47777 13.7299 9.27528C13.5565 10.0728 13.3832 10.8674 13.2098 11.6592C13.2098 11.6707 13.2098 11.6793 13.2098 11.685C13.2098 11.6908 13.2098 11.6936 13.2098 11.6936C13.1289 12.0608 12.9671 12.2875 12.7244 12.3735C12.4817 12.4596 12.2101 12.3936 11.9096 12.1756C11.378 11.7854 10.8493 11.3981 10.3234 11.0137C9.7976 10.6293 9.26887 10.242 8.73725 9.8519C8.71413 9.82895 8.69102 9.80886 8.66791 9.79165C8.64479 9.77444 8.6159 9.75436 8.58123 9.73141ZM6.2236 10.7125C6.23516 10.7125 6.24382 10.7096 6.2496 10.7038C6.25538 10.6981 6.25827 10.6952 6.25827 10.6952C6.25827 10.6838 6.26116 10.6694 6.26694 10.6522C6.27272 10.635 6.2756 10.6207 6.2756 10.6092C6.31028 10.2535 6.34495 9.89487 6.37962 9.5334C6.41429 9.17194 6.44318 8.81335 6.4663 8.45763C6.47785 8.3773 6.50096 8.30272 6.53564 8.23387C6.57031 8.16502 6.61654 8.10191 6.67432 8.04453C7.14816 7.61996 7.6191 7.19826 8.08716 6.77942C8.55522 6.36058 9.02327 5.94175 9.49133 5.52291C9.95939 5.10408 10.4274 4.68524 10.8955 4.26641C11.3636 3.84757 11.8345 3.43161 12.3083 3.01851C12.3892 2.93818 12.4759 2.85786 12.5684 2.77753C12.6608 2.69721 12.7475 2.61689 12.8284 2.53656C12.8515 2.51361 12.866 2.48492 12.8717 2.4505C12.8775 2.41607 12.8862 2.38165 12.8978 2.34722C12.8631 2.34722 12.8313 2.33862 12.8024 2.3214C12.7735 2.30419 12.7417 2.29559 12.7071 2.29559C12.6493 2.30706 12.5915 2.32427 12.5337 2.34722C12.4759 2.37017 12.4181 2.39886 12.3604 2.43328C12.2332 2.50213 12.109 2.57672 11.9876 2.65705C11.8663 2.73737 11.7478 2.81196 11.6323 2.88081C11.0891 3.22506 10.5488 3.56356 10.0114 3.89634C9.474 4.22912 8.9366 4.56475 8.3992 4.90327C7.8618 5.24178 7.3244 5.57742 6.787 5.91019C6.2496 6.24297 5.71509 6.58148 5.18347 6.92573C5.11413 6.96015 5.07079 7.00031 5.05345 7.04621C5.03612 7.09211 5.04479 7.14949 5.07946 7.21834C5.1488 7.42488 5.21814 7.63717 5.28748 7.85519C5.35683 8.07322 5.42617 8.28551 5.49551 8.49205C5.62263 8.87073 5.74687 9.24366 5.86822 9.61086C5.98957 9.97806 6.10803 10.3453 6.2236 10.7125Z" fill="white"/>
</svg>
