<svg width="32" height="34" viewBox="0 0 32 34" fill="none" xmlns="http://www.w3.org/2000/svg">
<path d="M29.6678 24.9345V16.9869V8.98691L15.8339 1L2 9.05237V17V25L15.8339 33L29.6678 24.9345ZM6.91553 22.1457V16.9869V11.8674L15.8339 6.66939L24.7523 11.8282V16.9869V22.1064L15.8339 27.3044L6.91553 22.1457Z" fill="#B3B3B3"/>
<path d="M2 9.05237L6.91553 11.8674L15.8339 6.68249L24.7523 11.8281L29.6678 8.98691L15.8339 1L2 9.05237Z" fill="white"/>
<path d="M2 9.05237L15.8339 1L29.6678 8.98691V24.9345L15.8339 32.9869L2 24.9869V9.05237Z" stroke="#B3B3B3" stroke-width="0.266047" stroke-miterlimit="10"/>
<path d="M6.91553 11.8674L15.8339 6.6825L24.7523 11.8282V22.1064L15.8339 27.3044L6.91553 22.1457V11.8674Z" stroke="#B3B3B3" stroke-width="0.266047" stroke-miterlimit="10"/>
</svg>
